<svg xmlns="http://www.w3.org/2000/svg" width="24" height="24" viewBox="0 0 24 24">
    <g fill="#FFF" fill-rule="nonzero">
        <path d="M12 2.165c3.203 0 3.583.013 4.848.07 1.17.054 1.804.249 2.227.413.521.193.993.5 1.38.898.398.387.705.858.897 1.379.164.423.36 1.058.413 2.228.058 1.265.07 1.644.07 4.847 0 3.203-.012 3.583-.07 4.848-.053 1.17-.249 1.805-.413 2.227a3.973 3.973 0 0 1-2.277 2.277c-.423.164-1.058.36-2.227.413-1.265.058-1.645.07-4.848.07s-3.583-.012-4.848-.07c-1.17-.053-1.804-.249-2.227-.413a3.717 3.717 0 0 1-1.38-.897 3.717 3.717 0 0 1-.897-1.38c-.164-.422-.36-1.058-.413-2.227-.058-1.265-.07-1.645-.07-4.848s.012-3.582.07-4.847c.053-1.17.249-1.805.413-2.228.192-.521.5-.992.898-1.38a3.717 3.717 0 0 1 1.379-.897c.423-.164 1.058-.36 2.227-.413 1.265-.058 1.645-.07 4.848-.07zm0-2.161c-3.258 0-3.667.014-4.946.072-1.277.058-2.149.261-2.912.558a5.88 5.88 0 0 0-2.125 1.383A5.88 5.88 0 0 0 .633 4.142C.337 4.905.134 5.777.076 7.054.018 8.334.004 8.742.004 12s.014 3.667.072 4.946c.058 1.277.261 2.149.558 2.912a5.88 5.88 0 0 0 1.383 2.125 5.88 5.88 0 0 0 2.125 1.383c.763.297 1.635.5 2.912.558 1.28.058 1.688.072 4.946.072s3.667-.014 4.946-.072c1.277-.058 2.15-.261 2.912-.558a6.134 6.134 0 0 0 3.509-3.508c.296-.763.499-1.635.557-2.912.059-1.28.072-1.688.072-4.946s-.013-3.667-.072-4.946c-.058-1.277-.26-2.149-.557-2.912a5.88 5.88 0 0 0-1.384-2.125A5.88 5.88 0 0 0 19.858.633c-.763-.296-1.635-.499-2.912-.557C15.666.018 15.258.004 12 .004z"/>
        <path d="M12 5.84a6.16 6.16 0 1 0 0 12.32 6.16 6.16 0 0 0 0-12.32zm0 10.159A3.999 3.999 0 1 1 12 8 3.999 3.999 0 0 1 12 16z"/>
        <circle cx="18.404" cy="5.596" r="1.44"/>
    </g>
</svg>
