<svg xmlns="http://www.w3.org/2000/svg" width="28" height="23" viewBox="0 0 28 23">
    <path fill="#FFF" fill-rule="nonzero" d="M8.911 22.954c10.508 0 16.255-8.812 16.255-16.454 0-.25 0-.5-.016-.748A11.704 11.704 0 0 0 28 2.76a11.296 11.296 0 0 1-3.281.91A5.791 5.791 0 0 0 27.23.47a11.365 11.365 0 0 1-3.627 1.404A5.668 5.668 0 0 0 16.739.736c-2.28 1.234-3.457 3.863-2.872 6.412A16.154 16.154 0 0 1 2.093 1.106C.576 3.748 1.35 7.129 3.86 8.826a5.618 5.618 0 0 1-2.593-.724v.073c.001 2.753 1.918 5.124 4.584 5.669a5.637 5.637 0 0 1-2.58.1c.749 2.355 2.893 3.969 5.338 4.015a11.375 11.375 0 0 1-8.455 2.397A16.031 16.031 0 0 0 8.91 22.95"/>
</svg>
