<svg xmlns="http://www.w3.org/2000/svg" xmlns:xlink="http://www.w3.org/1999/xlink" width="219" height="50" viewBox="0 0 219 50">
    <defs>
        <path id="a" d="M0 .019h43.656V49.32H0z"/>
    </defs>
    <g fill="none" fill-rule="evenodd">
        <path fill="#FFF" d="M74.472 19.043c0 1.64-.537 2.897-1.612 3.77-1.074.874-2.603 1.311-4.587 1.311h-1.632V30h-2.568V14.295h4.523c1.962 0 3.432.401 4.41 1.203.977.802 1.466 1.984 1.466 3.545zm-7.831 2.922h1.364c1.318 0 2.284-.23 2.9-.688.616-.458.924-1.174.924-2.148 0-.902-.276-1.576-.827-2.02-.551-.444-1.41-.666-2.578-.666H66.64v5.522zM88.25 30h-2.536v-7.305c0-.916-.184-1.6-.553-2.051-.369-.452-.954-.677-1.756-.677-1.06 0-1.84.317-2.337.95-.498.634-.746 1.696-.746 3.186V30h-2.525V13.285h2.525v4.243c0 .68-.043 1.408-.13 2.181h.162a3.505 3.505 0 0 1 1.434-1.332c.612-.315 1.327-.473 2.143-.473 2.879 0 4.318 1.45 4.318 4.35V30zm11.404 0l-.505-1.654h-.086c-.573.723-1.15 1.215-1.73 1.477-.58.261-1.324.392-2.234.392-1.167 0-2.078-.315-2.734-.945-.655-.63-.983-1.522-.983-2.675 0-1.225.455-2.149 1.365-2.772.91-.623 2.295-.963 4.157-1.02l2.052-.065v-.634c0-.759-.178-1.326-.532-1.702-.355-.376-.904-.564-1.649-.564-.609 0-1.192.09-1.75.268-.56.18-1.097.39-1.612.634l-.817-1.804a8.786 8.786 0 0 1 2.117-.769 9.739 9.739 0 0 1 2.17-.263c1.51 0 2.651.33 3.42.989.77.658 1.156 1.693 1.156 3.104V30h-1.805zm-3.76-1.719c.917 0 1.653-.256 2.208-.768.555-.512.832-1.23.832-2.154v-1.03l-1.525.064c-1.189.043-2.054.241-2.594.596-.541.354-.811.897-.811 1.627 0 .53.157.94.472 1.23.315.29.788.435 1.418.435zM115.894 30h-2.536v-7.305c0-.916-.184-1.6-.553-2.051-.369-.452-.954-.677-1.756-.677-1.067 0-1.848.315-2.342.945-.494.63-.741 1.687-.741 3.17V30h-2.525V18.12h1.977l.354 1.557h.13c.357-.566.866-1.003 1.525-1.31.659-.309 1.39-.463 2.191-.463 2.85 0 4.276 1.45 4.276 4.35V30zm8.396-1.826c.616 0 1.232-.097 1.848-.29v1.901c-.28.122-.64.224-1.08.306-.44.083-.897.124-1.37.124-2.391 0-3.587-1.26-3.587-3.781V20.03h-1.622v-1.117l1.74-.924.86-2.513h1.557v2.642h3.384v1.912h-3.384v6.36c0 .608.152 1.058.457 1.348.304.29.703.435 1.197.435zM136.404 30l-.505-1.654h-.086c-.573.723-1.15 1.215-1.73 1.477-.58.261-1.324.392-2.234.392-1.167 0-2.078-.315-2.734-.945-.655-.63-.983-1.522-.983-2.675 0-1.225.455-2.149 1.365-2.772.91-.623 2.295-.963 4.157-1.02l2.052-.065v-.634c0-.759-.178-1.326-.532-1.702-.355-.376-.904-.564-1.649-.564-.609 0-1.192.09-1.75.268-.56.18-1.097.39-1.612.634l-.817-1.804a8.786 8.786 0 0 1 2.117-.769 9.739 9.739 0 0 1 2.17-.263c1.51 0 2.651.33 3.42.989.77.658 1.156 1.693 1.156 3.104V30h-1.805zm-3.76-1.719c.917 0 1.653-.256 2.208-.768.555-.512.832-1.23.832-2.154v-1.03l-1.525.064c-1.189.043-2.054.241-2.594.596-.541.354-.811.897-.811 1.627 0 .53.157.94.472 1.23.315.29.788.435 1.418.435zm17.528-1.665c0 1.16-.423 2.05-1.268 2.67-.845.62-2.055.929-3.63.929-1.583 0-2.854-.24-3.814-.72v-2.18c1.396.644 2.696.966 3.9.966 1.553 0 2.33-.469 2.33-1.407 0-.3-.086-.551-.257-.752-.172-.2-.455-.408-.849-.623-.394-.215-.942-.458-1.644-.73-1.367-.53-2.293-1.06-2.776-1.59-.484-.53-.726-1.218-.726-2.063 0-1.017.41-1.806 1.23-2.368.82-.563 1.936-.844 3.347-.844 1.396 0 2.717.283 3.964.849l-.817 1.901c-1.282-.53-2.36-.795-3.233-.795-1.332 0-1.998.38-1.998 1.139 0 .372.173.688.52.945.348.258 1.105.613 2.273 1.064.98.38 1.693.727 2.137 1.042.444.315.774.678.989 1.09.214.412.322.904.322 1.477zm1.382-8.497h2.75l2.417 6.735c.365.96.609 1.862.73 2.708h.086c.065-.394.183-.872.355-1.435.172-.562 1.081-3.231 2.728-8.008h2.729l-5.081 13.46c-.924 2.47-2.464 3.706-4.62 3.706a7.27 7.27 0 0 1-1.632-.182v-1.999c.38.086.813.13 1.3.13 1.217 0 2.073-.706 2.567-2.117l.44-1.117-4.769-11.88zM177.479 30h-2.568V16.497h-4.619v-2.202h11.806v2.202h-4.62V30zm16.217-5.962c0 1.94-.498 3.455-1.494 4.544-.995 1.089-2.38 1.633-4.157 1.633-1.11 0-2.09-.25-2.943-.752-.852-.501-1.508-1.221-1.966-2.16-.458-.937-.687-2.026-.687-3.265 0-1.926.494-3.43 1.482-4.512.988-1.081 2.381-1.622 4.179-1.622 1.718 0 3.08.554 4.082 1.66 1.002 1.106 1.504 2.598 1.504 4.474zm-8.648 0c0 2.743 1.014 4.114 3.04 4.114 2.005 0 3.008-1.371 3.008-4.114 0-2.714-1.01-4.071-3.03-4.071-1.06 0-1.827.35-2.303 1.053-.477.701-.715 1.708-.715 3.018zM205.433 30l-.354-1.558h-.13c-.35.552-.85.985-1.498 1.3-.648.315-1.387.473-2.218.473-1.44 0-2.514-.358-3.223-1.074-.709-.717-1.063-1.801-1.063-3.255v-7.767h2.546v7.326c0 .91.186 1.592.558 2.047.373.454.956.682 1.751.682 1.06 0 1.84-.317 2.337-.95.498-.635.746-1.696.746-3.186V18.12h2.536V30h-1.988zm12.07-12.096c.51 0 .928.036 1.258.108l-.247 2.352a4.771 4.771 0 0 0-1.118-.129c-1.01 0-1.827.33-2.454.989-.627.658-.94 1.514-.94 2.567V30h-2.524V18.12h1.976l.333 2.094h.129a4.707 4.707 0 0 1 1.542-1.687 3.664 3.664 0 0 1 2.046-.623z"/>
        <g transform="translate(0 .003)">
            <mask id="b" fill="#fff">
                <use xlink:href="#a"/>
            </mask>
            <path fill="#FFF" d="M20.918 3.459a16.597 16.597 0 0 1 2.095-.133c11.25 0 16.836 7.573 16.836 17.087 0 1.098-.183 2.223-.518 3.343-.552 1.989-1.86 4.8-2.997 7.029l-.027.053-.178.08c-.49.3-1.06.546-1.684.746-1.138.366-2.453.577-3.776.685-3.139.43-6.306.376-8.748.443-.278.007-.68-.004-1.17-.032-2.25-.131-6.38-.62-9.106-1.277a28.752 28.752 0 0 0-1.706-.369 17.243 17.243 0 0 1-3.696-10.702c0-8.713 6.402-15.903 14.675-16.953m16.598 31.606c.273 1.977.477 3.192 2.52 4.58-2.077 1.492-7.491 5.274-17.98 4.094.75-.208 12.816-1.283 15.46-8.674m.549-3.436c.309-.236.934-.709 1.266 0 .33.708-1.028 1.54-2.425 2.362-1.004.59-3.772 1.666-8.834 2.28a64.938 64.938 0 0 1-5.875.424c-1.697.05-3.227.003-4.594-.105-5.793-.46-8.645-2.031-8.75-2.074.859.06 2.917.403 5.716.662 3.417.315 7.937.502 12.726-.113a46.615 46.615 0 0 0 3.994-.678c1.543-.337 2.75-.705 3.689-1.06 2.165-.817 2.91-1.563 3.087-1.698m3.167 4.643c-1.33-1.532-.493-2.6.829-5.017 1.321-2.418.592-2.366-1.713-4.177C48.031 11.197 34.587.018 23.007.018 10.487.019 2.835 9.15 2.835 20.414c0 2.802.652 5.564 1.82 8.108-1.004 1.4-2.547 3.427-1.421 4.894 1.23 1.603 1.321 2.3-1.23 4.529-2.553 2.229-2.37 4.411-1.095 5.294 1.276.882 7.601 6.083 20.594 6.083 7.979 0 16.912-1.626 20.467-5.62 3.554-3.993.592-5.896-.738-7.429" mask="url(#b)"/>
        </g>
        <path fill="#FFF" d="M15.717 21.179c0-.55-.117-1.458-.164-2.437-.024-.98-.094-2.174-.399-3.202.352-.19 1.22-.454 1.946-.454.821 0 2.837.24 2.837 1.673 0 2.365-2.884 3.75-4.22 4.42m1.923-7.813c-2.345 0-4.97.98-6.612 2.055-.328.215-.54.526-.54.932 0 .62.376.836.704.836.375 0 .422-.096.703-.24.305-.095.633-.453.821-.453.164 0 .187.31.211.478.258 1.911.516 4.563.516 5.232 0 .573-.422.478-.422 1.362 0 .286.398.55.445.931.024.335.211 2.652.328 3.106.188.693.915.812 1.173.812.516 0 1.641-.477 1.641-1.242 0-.215-.188-.788-.258-1.051-.094-.406-.445-2.222-.445-2.7 1.29-.597 6.729-3.344 6.729-7.047 0-2.246-2.65-3.01-4.994-3.01M33.67 10.236c-.938 0-4.689.931-5.298 1.003-.61.072-3.94.86-4.713.86-.563 0-.797.765-.797 1.051 0 .311.304 1.075.89 1.075.798 0 2.486-.62 3.588-.788.07 2.413.281 3.99.281 5.949 0 1.648.282 4.205.399 4.706.21.932.727 1.482 1.407 1.482s1.383-.287 1.383-.932c0-.621-.469-1.744-.563-2.628-.094-.932-.281-3.894-.305-4.85-.046-.956-.281-3.01-.258-4.3.985-.263 3.119-.526 3.775-.526.657 0 1.126-.573 1.126-1.051s-.399-1.051-.915-1.051"/>
    </g>
</svg>
