<svg xmlns="http://www.w3.org/2000/svg" xmlns:xlink="http://www.w3.org/1999/xlink" width="174" height="38" viewBox="0 0 174 38">
    <defs>
        <path id="a" d="M0 .014h33.734v37.47H0z"/>
    </defs>
    <g fill="none" fill-rule="evenodd">
        <path fill="#FFF" d="M55.204 17.035c0 1.342-.44 2.37-1.318 3.085-.88.715-2.13 1.072-3.753 1.072h-1.336V26h-2.1V13.15h3.7c1.605 0 2.808.329 3.607.985.8.656 1.2 1.623 1.2 2.9zm-6.407 2.39h1.116c1.078 0 1.87-.187 2.373-.562.504-.375.756-.96.756-1.758 0-.738-.226-1.289-.677-1.652-.45-.363-1.154-.545-2.11-.545h-1.458v4.518zM66.477 26h-2.074v-5.977c0-.75-.15-1.31-.452-1.678-.302-.37-.781-.554-1.437-.554-.868 0-1.505.26-1.912.778-.407.518-.61 1.387-.61 2.606V26h-2.066V12.324h2.065v3.472c0 .557-.035 1.151-.105 1.784h.132a2.868 2.868 0 0 1 1.173-1.09c.5-.258 1.085-.386 1.753-.386 2.356 0 3.534 1.186 3.534 3.56V26zm9.332 0l-.413-1.354h-.07c-.47.592-.941.995-1.416 1.209-.474.214-1.084.32-1.828.32-.955 0-1.7-.257-2.237-.773-.536-.515-.804-1.245-.804-2.188 0-1.002.372-1.758 1.116-2.268.744-.51 1.878-.788 3.402-.835l1.678-.052v-.519c0-.621-.145-1.085-.435-1.393-.29-.308-.74-.461-1.349-.461-.498 0-.975.073-1.432.22-.458.146-.897.319-1.319.518l-.668-1.477a7.189 7.189 0 0 1 1.732-.628 7.968 7.968 0 0 1 1.775-.215c1.236 0 2.17.269 2.8.808.63.54.944 1.386.944 2.54V26H75.81zm-3.077-1.406c.75 0 1.352-.21 1.807-.629.454-.419.68-1.006.68-1.762v-.844l-1.247.053c-.973.035-1.68.198-2.123.488-.442.29-.663.734-.663 1.331 0 .434.128.77.386 1.007.258.237.645.356 1.16.356zM89.095 26H87.02v-5.977c0-.75-.151-1.31-.453-1.678-.302-.37-.78-.554-1.437-.554-.873 0-1.512.258-1.916.773-.404.516-.607 1.38-.607 2.593V26h-2.065v-9.72h1.617l.29 1.274h.106c.293-.463.709-.82 1.248-1.073a4.182 4.182 0 0 1 1.793-.377c2.332 0 3.498 1.186 3.498 3.56V26zm6.87-1.494c.504 0 1.008-.08 1.512-.237v1.555a4.17 4.17 0 0 1-.884.25c-.36.068-.734.102-1.12.102-1.957 0-2.936-1.031-2.936-3.094v-5.238H91.21v-.914l1.424-.756.703-2.057h1.274v2.162h2.769v1.565H94.61v5.203c0 .498.125.866.374 1.103s.576.356.98.356zM105.876 26l-.413-1.354h-.07c-.47.592-.94.995-1.415 1.209-.475.214-1.084.32-1.829.32-.955 0-1.7-.257-2.236-.773-.537-.515-.805-1.245-.805-2.188 0-1.002.372-1.758 1.117-2.268.744-.51 1.878-.788 3.401-.835l1.679-.052v-.519c0-.621-.145-1.085-.435-1.393-.29-.308-.74-.461-1.35-.461-.498 0-.975.073-1.432.22-.457.146-.897.319-1.318.518l-.668-1.477a7.189 7.189 0 0 1 1.731-.628 7.968 7.968 0 0 1 1.775-.215c1.237 0 2.17.269 2.8.808.63.54.945 1.386.945 2.54V26h-1.477zm-3.076-1.406c.75 0 1.352-.21 1.806-.629.454-.419.681-1.006.681-1.762v-.844l-1.248.053c-.973.035-1.68.198-2.122.488-.443.29-.664.734-.664 1.331 0 .434.129.77.387 1.007.257.237.644.356 1.16.356zm14.34-1.363c0 .95-.345 1.678-1.036 2.185-.692.506-1.682.76-2.971.76-1.295 0-2.335-.197-3.12-.59v-1.783c1.142.527 2.206.79 3.19.79 1.272 0 1.907-.383 1.907-1.15a.912.912 0 0 0-.21-.616c-.141-.164-.373-.334-.695-.51-.322-.175-.77-.375-1.345-.597-1.119-.434-1.876-.867-2.272-1.301-.395-.434-.593-.996-.593-1.688 0-.832.336-1.478 1.006-1.938.671-.46 1.584-.69 2.738-.69 1.143 0 2.224.232 3.243.695l-.668 1.556c-1.048-.434-1.93-.65-2.645-.65-1.09 0-1.635.31-1.635.93 0 .305.142.563.426.774.285.211.904.501 1.86.87.802.31 1.385.595 1.748.853.364.258.633.555.809.892.176.337.264.74.264 1.208zm1.131-6.952h2.25l1.978 5.511c.299.785.498 1.523.598 2.215h.07c.053-.322.15-.713.29-1.173.14-.46.885-2.644 2.232-6.553h2.233l-4.157 11.013c-.756 2.021-2.016 3.032-3.78 3.032-.457 0-.902-.05-1.336-.15V28.54c.311.07.665.106 1.064.106.996 0 1.696-.578 2.1-1.732l.36-.914-3.902-9.72zM139.482 26h-2.1V14.952h-3.78V13.15h9.66v1.802h-3.78V26zm13.269-4.878c0 1.588-.407 2.827-1.222 3.718-.814.89-1.948 1.336-3.401 1.336-.908 0-1.711-.205-2.408-.615-.698-.41-1.234-1-1.609-1.767-.375-.768-.562-1.658-.562-2.672 0-1.576.404-2.807 1.213-3.691.808-.885 1.948-1.327 3.419-1.327 1.406 0 2.52.452 3.34 1.357.82.906 1.23 2.126 1.23 3.661zm-7.075 0c0 2.244.829 3.366 2.487 3.366 1.64 0 2.461-1.122 2.461-3.366 0-2.22-.826-3.331-2.478-3.331-.868 0-1.496.287-1.886.861-.39.575-.584 1.398-.584 2.47zM162.354 26l-.29-1.274h-.105c-.287.45-.696.805-1.226 1.063-.53.258-1.135.387-1.815.387-1.178 0-2.057-.293-2.637-.88-.58-.585-.87-1.473-.87-2.662v-6.355h2.083v5.994c0 .745.152 1.303.457 1.675.305.372.782.558 1.433.558.867 0 1.504-.26 1.911-.778.408-.519.611-1.387.611-2.606V16.28h2.074V26h-1.626zm9.876-9.896c.416 0 .76.029 1.029.087l-.202 1.925a3.904 3.904 0 0 0-.914-.105c-.827 0-1.496.27-2.009.808-.512.54-.769 1.24-.769 2.1V26H167.3v-9.72h1.617l.272 1.713h.106c.322-.58.743-1.04 1.261-1.38a2.998 2.998 0 0 1 1.674-.51z"/>
        <g transform="translate(0 .002)">
            <mask id="b" fill="#fff">
                <use xlink:href="#a"/>
            </mask>
            <path fill="#FFF" d="M16.164 2.629c.53-.067 1.07-.1 1.62-.1 8.692 0 13.009 5.754 13.009 12.985a8.75 8.75 0 0 1-.401 2.54c-.426 1.512-1.437 3.649-2.316 5.343l-.02.04-.138.06c-.379.229-.82.416-1.301.568-.88.277-1.896.438-2.918.52-2.426.328-4.873.286-6.76.337-.215.005-.525-.003-.904-.025-1.739-.1-4.93-.47-7.036-.97a22.54 22.54 0 0 0-1.319-.28 12.943 12.943 0 0 1-2.856-8.133c0-6.623 4.947-12.087 11.34-12.885m12.826 24.02c.21 1.503.368 2.426 1.947 3.481-1.605 1.134-5.789 4.009-13.894 3.112.58-.158 9.904-.976 11.947-6.593m.424-2.611c.239-.18.722-.539.978 0 .256.538-.795 1.171-1.874 1.795-.776.449-2.914 1.267-6.826 1.733-1.31.155-2.818.272-4.54.322a33.258 33.258 0 0 1-3.55-.08c-4.476-.349-6.68-1.543-6.76-1.576.662.045 2.253.307 4.416.503 2.64.24 6.133.382 9.833-.086a36.573 36.573 0 0 0 3.087-.515 20.697 20.697 0 0 0 2.85-.805c1.673-.621 2.25-1.189 2.386-1.291m2.447 3.529c-1.028-1.165-.38-1.976.64-3.814 1.022-1.837.458-1.797-1.323-3.174C37.115 8.51 26.726.014 17.778.014c-9.674 0-15.587 6.94-15.587 15.5 0 2.13.504 4.229 1.406 6.162-.775 1.065-1.968 2.605-1.098 3.72.95 1.218 1.02 1.747-.951 3.441-1.972 1.694-1.831 3.353-.845 4.024.986.67 5.873 4.623 15.913 4.623 6.165 0 13.068-1.235 15.815-4.27 2.747-3.036.458-4.482-.57-5.647" mask="url(#b)"/>
        </g>
        <path fill="#FFF" d="M12.145 16.096c0-.418-.09-1.108-.127-1.852-.018-.745-.072-1.653-.308-2.433.272-.146.942-.345 1.504-.345.634 0 2.192.181 2.192 1.27 0 1.798-2.228 2.851-3.261 3.36m1.486-5.938c-1.812 0-3.841.745-5.11 1.562-.253.163-.416.4-.416.708 0 .472.29.636.543.636.29 0 .326-.073.544-.182.235-.073.489-.345.634-.345.127 0 .145.236.163.363.2 1.453.399 3.468.399 3.976 0 .436-.327.364-.327 1.035 0 .218.308.418.345.709.018.254.163 2.015.253 2.36.145.526.707.617.906.617.399 0 1.268-.363 1.268-.944 0-.163-.144-.6-.199-.799-.072-.308-.344-1.688-.344-2.052.996-.453 5.2-2.541 5.2-5.356 0-1.707-2.048-2.288-3.86-2.288M26.018 7.78c-.725 0-3.624.707-4.095.762-.47.054-3.043.653-3.641.653-.435 0-.616.581-.616.8 0 .235.235.816.688.816.616 0 1.92-.472 2.772-.599.055 1.834.218 3.032.218 4.521 0 1.253.217 3.196.308 3.577.163.708.561 1.126 1.087 1.126.525 0 1.069-.218 1.069-.708 0-.472-.363-1.326-.435-1.997a82.103 82.103 0 0 1-.236-3.686c-.036-.727-.217-2.288-.199-3.269.76-.2 2.41-.399 2.917-.399.507 0 .87-.436.87-.799 0-.363-.308-.799-.707-.799"/>
    </g>
</svg>
